HIERARCHY
ROOT hip
{
	OFFSET	0.00  0.00  0.00 
	CHANNELS 6 Xposition Yposition Zposition Xrotation Zrotation Yrotation
	JOINT waist
	{
		OFFSET	0.000000 2.191865 -0.079388
		CHANNELS 3 Xrotation Zrotation Yrotation
		JOINT abdomen
		{
			OFFSET	0.000000 2.770984 0.119082
			CHANNELS 3 Xrotation Zrotation Yrotation
			JOINT chest
			{
				OFFSET	0.000000 2.879627 -0.290598
				CHANNELS 3 Xrotation Zrotation Yrotation
				JOINT neck
				{
					OFFSET	0.000000 12.342733 -1.613748
					CHANNELS 3 Xrotation Zrotation Yrotation
					JOINT head
					{
						OFFSET	0.000000 4.485597 1.807195
						CHANNELS 3 Xrotation Zrotation Yrotation
						End Site
						{
							OFFSET 0.000000 7.191734 2.024398
						}
					}
				}
				JOINT lCollar
				{
					OFFSET	1.858774 10.237258 -1.915852
					CHANNELS 3 Zrotation Yrotation Xrotation
					JOINT lShldr
					{
						OFFSET	6.103279 0.000102 -0.038601
						CHANNELS 3 Zrotation Yrotation Xrotation
						JOINT lForeArm
						{
							OFFSET	10.574100 -0.365985 -0.655940
							CHANNELS 3 Zrotation Yrotation Xrotation
							JOINT lHand
							{
								OFFSET	13.213392 -0.641131 0.276866
								CHANNELS 3 Zrotation Yrotation Xrotation
								JOINT lThumb1
								{
									OFFSET	1.920964 -1.225712 1.722395
									CHANNELS 3 Zrotation Yrotation Xrotation
									JOINT lThumb2
									{
										OFFSET	0.248544 -0.143036 0.768265
										CHANNELS 3 Zrotation Yrotation Xrotation
										JOINT lThumb3
										{
											OFFSET	0.628484 -0.225174 0.508305
											CHANNELS 3 Zrotation Yrotation Xrotation
											End Site
											{
												OFFSET 0.831712 -0.207978 0.609962
											}
										}
									}
								}
								JOINT lIndex1
								{
									OFFSET	5.093442 -0.710319 1.829884
									CHANNELS 3 Zrotation Yrotation Xrotation
									JOINT lIndex2
									{
										OFFSET	0.889470 -0.051998 0.127073
										CHANNELS 3 Zrotation Yrotation Xrotation
										JOINT lIndex3
										{
											OFFSET	0.889570 -0.155981 0.127073
											CHANNELS 3 Zrotation Yrotation Xrotation
											End Site
											{
												OFFSET 0.797115 -0.294470 0.076252
											}
										}
									}
								}
								JOINT lMid1
								{
									OFFSET	5.154641 -0.519844 0.864111
									CHANNELS 3 Zrotation Yrotation Xrotation
									JOINT lMid2
									{
										OFFSET	0.928821 -0.051992 0.050831
										CHANNELS 3 Zrotation Yrotation Xrotation
										JOINT lMid3
										{
											OFFSET	0.984253 -0.311865 0.050831
											CHANNELS 3 Zrotation Yrotation Xrotation
											End Site
											{
												OFFSET 0.779717 -0.606438 -0.050831
											}
										}
									}
								}
								JOINT lRing1
								{
									OFFSET	4.924408 -0.754930 -0.235503
									CHANNELS 3 Zrotation Yrotation Xrotation
									JOINT lRing2
									{
										OFFSET	0.981624 -0.036924 -0.108278
										CHANNELS 3 Zrotation Yrotation Xrotation
										JOINT lRing3
										{
											OFFSET	0.805613 -0.205247 -0.041717
											CHANNELS 3 Zrotation Yrotation Xrotation
											End Site
											{
												OFFSET 0.667431 -0.470481 -0.035991
											}
										}
									}
								}
								JOINT lPinky1
								{
									OFFSET	4.535460 -0.816635 -1.006206
									CHANNELS 3 Zrotation Yrotation Xrotation
									JOINT lPinky2
									{
										OFFSET	0.690596 -0.064334 -0.168800
										CHANNELS 3 Zrotation Yrotation Xrotation
										JOINT lPinky3
										{
											OFFSET	0.598039 -0.111176 -0.071973
											CHANNELS 3 Zrotation Yrotation Xrotation
											End Site
											{
												OFFSET 0.422025 -0.290925 -0.035981
											}
										}
									}
								}
							}
						}
					}
				}
				JOINT rCollar
				{
					OFFSET	-1.858774 10.237258 -1.915852
					CHANNELS 3 Zrotation Yrotation Xrotation
					JOINT rShldr
					{
						OFFSET	-6.103279 0.000102 -0.038601
						CHANNELS 3 Zrotation Yrotation Xrotation
						JOINT rForeArm
						{
							OFFSET	-10.574100 -0.365985 -0.655940
							CHANNELS 3 Zrotation Yrotation Xrotation
							JOINT rHand
							{
								OFFSET	-13.213392 -0.641131 0.276866
								CHANNELS 3 Zrotation Yrotation Xrotation
								JOINT rIndex1
								{
									OFFSET	-5.093442 -0.710319 1.829884
									CHANNELS 3 Zrotation Yrotation Xrotation
									JOINT rIndex2
									{
										OFFSET	-0.889470 -0.051998 0.127073
										CHANNELS 3 Zrotation Yrotation Xrotation
										JOINT rIndex3
										{
											OFFSET	-0.889570 -0.155981 0.127073
											CHANNELS 3 Zrotation Yrotation Xrotation
											End Site
											{
												OFFSET -0.797115 -0.294470 0.076252
											}
										}
									}
								}
								JOINT rThumb1
								{
									OFFSET	-1.920964 -1.225712 1.722395
									CHANNELS 3 Zrotation Yrotation Xrotation
									JOINT rThumb2
									{
										OFFSET	-0.248544 -0.143036 0.768265
										CHANNELS 3 Zrotation Yrotation Xrotation
										JOINT rThumb3
										{
											OFFSET	-0.628484 -0.225174 0.508305
											CHANNELS 3 Zrotation Yrotation Xrotation
											End Site
											{
												OFFSET -0.831712 -0.207978 0.609962
											}
										}
									}
								}
								JOINT rMid1
								{
									OFFSET	-5.154641 -0.519844 0.864111
									CHANNELS 3 Zrotation Yrotation Xrotation
									JOINT rMid2
									{
										OFFSET	-0.928821 -0.051992 0.050831
										CHANNELS 3 Zrotation Yrotation Xrotation
										JOINT rMid3
										{
											OFFSET	-0.984253 -0.311865 0.050831
											CHANNELS 3 Zrotation Yrotation Xrotation
											End Site
											{
												OFFSET -0.779717 -0.606438 -0.050831
											}
										}
									}
								}
								JOINT rRing1
								{
									OFFSET	-4.924408 -0.754930 -0.235503
									CHANNELS 3 Zrotation Yrotation Xrotation
									JOINT rRing2
									{
										OFFSET	-0.981624 -0.036924 -0.108278
										CHANNELS 3 Zrotation Yrotation Xrotation
										JOINT rRing3
										{
											OFFSET	-0.805613 -0.205247 -0.041717
											CHANNELS 3 Zrotation Yrotation Xrotation
											End Site
											{
												OFFSET -0.667431 -0.470481 -0.035991
											}
										}
									}
								}
								JOINT rPinky1
								{
									OFFSET	-4.535460 -0.816635 -1.006206
									CHANNELS 3 Zrotation Yrotation Xrotation
									JOINT rPinky2
									{
										OFFSET	-0.690596 -0.064334 -0.168800
										CHANNELS 3 Zrotation Yrotation Xrotation
										JOINT rPinky3
										{
											OFFSET	-0.598039 -0.111176 -0.071973
											CHANNELS 3 Zrotation Yrotation Xrotation
											End Site
											{
												OFFSET -0.422025 -0.290925 -0.035981
											}
										}
									}
								}
							}
						}
					}
				}
			}
		}
	}
	JOINT lThigh
	{
		OFFSET	5.761895 -0.730553 0.000101
		CHANNELS 3 Xrotation Zrotation Yrotation
		JOINT lShin
		{
			OFFSET	-1.171020 -18.459274 1.627449
			CHANNELS 3 Xrotation Zrotation Yrotation
			JOINT lFoot
			{
				OFFSET	-0.883715 -16.872776 -3.357785
				CHANNELS 3 Xrotation Zrotation Yrotation
				JOINT lToe
				{
					OFFSET	1.287613 -2.778491 2.836049
					CHANNELS 3 Xrotation Yrotation Zrotation
					End Site
					{
						OFFSET 1.362641 -0.436631 3.828194
					}
				}
			}
		}
	}
	JOINT rThigh
	{
		OFFSET	-5.761895 -0.730553 0.000101
		CHANNELS 3 Xrotation Zrotation Yrotation
		JOINT rShin
		{
			OFFSET	1.171020 -18.459274 1.627449
			CHANNELS 3 Xrotation Zrotation Yrotation
			JOINT rFoot
			{
				OFFSET	0.883715 -16.872776 -3.357785
				CHANNELS 3 Xrotation Zrotation Yrotation
				JOINT rToe
				{
					OFFSET	-1.287613 -2.778491 2.836049
					CHANNELS 3 Xrotation Yrotation Zrotation
					End Site
					{
						OFFSET -1.362641 -0.436631 3.828194
					}
				}
			}
		}
	}
}
MOTION
Frames:     4
Frame Time: 0.033333
-0.012647 38.719574 3.332071 3.395795 -1.027193 -4.237982 0.019531 0.000000 0.000000 -1.718755 0.397145 0.481213 -0.355234 -2.811649 8.731112 -0.202356 2.255016 -0.308966 1.486595 0.648919 -4.006244 -0.946508 -0.009993 -0.122936 -80.666534 2.043129 -15.382847 -0.006351 -3.103519 -0.806151 39.365746 -8.759194 -1.492483 -1.138349 14.872857 16.409939 0.922729 7.982076 2.298450 1.143080 12.883307 2.741511 -18.410971 5.016477 2.896982 -19.629528 0.224896 2.735937 -19.745291 -0.016594 1.776679 -18.833326 -0.613727 0.965177 -19.800558 0.010560 0.969558 -19.796606 0.163717 -1.070418 -18.593748 -5.746279 -1.703849 -19.798420 -0.055385 -1.006029 -19.804029 0.118396 -0.914910 -17.202864 -10.199288 -6.147830 -19.683630 -0.195415 -2.327101 -19.773434 0.179938 -1.448180 -2.578938 -0.013361 -8.108944 79.133972 4.339239 9.173267 -0.134459 19.835897 7.696887 -18.439093 9.242024 -0.677165 23.452425 -5.285425 3.587703 31.026369 -0.803547 4.244790 37.935326 -0.529238 3.343456 -6.853165 -20.699158 13.915245 -0.760142 -6.648059 1.901676 -1.522521 -15.800728 3.422143 16.081600 0.625301 0.820061 42.473816 -0.453767 2.009254 24.517067 -0.166040 -1.319120 25.072264 5.959712 -2.262605 41.758629 0.480275 -2.019669 21.345615 -0.132198 -0.978922 37.206898 12.169383 -10.933785 24.481661 0.341840 -2.874828 23.027264 -0.179907 -1.680662 -26.529739 0.924215 7.583754 11.107430 -0.143332 -0.604980 -6.428452 1.066538 3.109854 -9.288459 2.788778 -5.720804 12.977093 3.573956 -3.229636 13.792240 -0.060737 0.665103 21.002037 -5.559630 -3.241052 -36.291004 1.315187 -2.776728 
-0.012647 38.641766 3.332071 3.474155 -0.835959 -4.009882 -0.009766 0.000000 0.000000 -1.874908 0.362778 0.345742 -0.440834 -2.779280 8.440729 -0.195949 1.977284 0.255713 1.625460 0.648091 -3.539604 -0.809053 -0.009974 -0.239283 -80.568314 1.830360 -10.845994 -0.009557 -1.088210 -0.847702 38.434155 -8.787937 -1.459991 -1.138349 14.872857 16.409939 0.922729 7.982076 2.298450 1.143080 12.883307 2.741511 -18.468283 5.018861 2.904824 -19.697180 0.227319 2.745220 -19.813372 -0.015565 1.782796 -18.891865 -0.612785 0.968241 -19.868835 0.011205 0.972901 -19.864876 0.163650 -1.074126 -18.651583 -5.747991 -1.708884 -19.866688 -0.056145 -1.009396 -19.872324 0.118269 -0.918061 -17.257292 -10.202406 -6.160990 -19.751486 -0.197432 -2.334898 -19.841625 0.179704 -1.453190 -2.480944 -0.012079 -6.449376 79.251579 4.135376 9.475463 -0.118289 18.855883 7.868268 -19.244524 9.228029 -0.710567 23.337830 -5.279308 3.572520 30.891226 -0.795179 4.227651 37.799271 -0.523487 3.332494 -6.853165 -20.699158 13.915245 -0.760142 -6.648059 1.901676 -1.522521 -15.800728 3.422143 15.964521 0.626875 0.813866 42.337311 -0.450019 2.003598 24.380529 -0.166766 -1.311716 24.956583 5.955174 -2.252985 41.622135 0.476347 -2.013968 21.209026 -0.132605 -0.972606 37.098209 12.154188 -10.909369 24.355682 0.336913 -2.860628 22.890886 -0.180921 -1.670691 -25.875813 -0.661785 6.503866 12.239531 -0.114090 -0.647678 3.833307 2.832333 4.960581 -8.651820 2.835296 -5.938115 13.419565 3.499058 -3.249372 15.642632 -0.179087 0.789737 26.566641 -3.251371 -5.040411 -37.369820 1.562500 -3.071658 
-0.012647 38.687660 3.332071 3.298983 -0.407315 -3.406340 -0.146484 -0.010174 -0.009341 -2.119158 0.132823 0.193598 -0.241039 -2.710018 7.817391 -0.178922 1.694116 0.833400 1.821968 0.684305 -2.941338 -0.624187 -0.009912 -0.130725 -80.468269 1.402065 -7.196746 -0.010031 0.971204 -1.239370 37.227875 -8.824389 -1.419175 -1.138349 14.872857 16.409939 0.922729 7.982076 2.298450 1.143080 12.883307 2.741511 -18.563801 5.022853 2.918745 -19.803488 0.231149 2.759739 -19.920351 -0.013932 1.792406 -18.989429 -0.611208 0.973347 -19.976120 0.012226 0.978153 -19.972157 0.163537 -1.079953 -18.747974 -5.750858 -1.717270 -19.973969 -0.057346 -1.014684 -19.979643 0.118063 -0.923012 -17.348009 -10.207628 -6.184645 -19.858114 -0.200621 -2.347145 -19.948782 0.179325 -1.461061 -2.198868 -0.011234 -5.035113 79.538918 3.939537 8.515360 -0.100452 17.561920 7.782054 -20.550798 9.204325 -0.765887 23.137287 -5.268679 3.545024 30.678862 -0.782108 4.200676 37.575748 -0.514095 3.314457 -6.853165 -20.699158 13.915245 -0.760142 -6.648059 1.901676 -1.522521 -15.800728 3.422143 15.759627 0.629600 0.803017 42.113056 -0.443891 1.994289 24.156214 -0.167920 -1.299548 24.754143 5.947281 -2.236128 41.397892 0.469924 -2.004581 20.984634 -0.133240 -0.962229 36.908009 12.127708 -10.866064 24.132788 0.328270 -2.835584 22.666830 -0.182535 -1.654257 -24.295139 -2.235817 7.197240 13.078972 -0.177650 -0.686857 8.014787 4.073772 4.700778 -5.325206 3.038855 -7.077972 10.232327 3.229315 -3.255834 24.040541 -0.230784 1.177626 24.129625 -1.292777 -7.786831 -34.578960 0.934754 -2.300307 
-0.012647 38.835396 3.332071 3.075120 0.320307 -2.592283 -0.351563 -0.010592 -0.019096 -2.411949 -0.386735 0.156399 0.526021 -2.609020 6.908052 -0.217817 1.436032 0.611003 2.136175 0.749678 -2.239655 -0.407931 -0.009896 -0.354012 -80.376686 0.795688 -5.831102 -0.009531 1.651031 -1.366732 35.815460 -8.865953 -1.368942 -1.138349 14.872857 16.409939 0.922729 7.982076 2.298450 1.143080 12.883307 2.741511 -18.687971 5.028075 2.935718 -19.948456 0.236416 2.779528 -20.066236 -0.011676 1.805507 -19.116261 -0.609146 0.979980 -20.122421 0.013635 0.985311 -20.118448 0.163364 -1.087898 -18.873287 -5.754606 -1.728167 -20.120260 -0.059000 -1.021892 -20.125982 0.117766 -0.929762 -17.465937 -10.214473 -6.214863 -20.003521 -0.205005 -2.363836 -20.094912 0.178785 -1.471793 -1.781311 -0.010679 -3.826788 79.937386 3.484933 6.518654 -0.084477 16.158876 7.426285 -22.249775 9.171656 -0.836551 22.869888 -5.254652 3.509498 30.369957 -0.763276 4.161351 37.274471 -0.501548 3.290086 -6.853165 -20.699158 13.915245 -0.760142 -6.648059 1.901676 -1.522521 -15.800728 3.422143 15.496192 0.633046 0.789054 41.810787 -0.435688 1.981702 23.844130 -0.169447 -1.282613 24.493858 5.937222 -2.213402 41.095646 0.461324 -1.991890 20.682192 -0.134033 -0.948239 36.663460 12.093860 -10.811437 23.832359 0.316776 -2.801774 22.364847 -0.184609 -1.632097 -22.099180 -3.430647 6.000788 13.199016 -0.266890 -0.645116 5.412755 3.854264 5.201720 -0.135913 3.223349 -8.873044 9.095328 2.551212 -3.841393 27.351120 -0.095478 1.308909 23.595051 0.083434 -11.253448 -31.017233 0.191800 -1.276473 
